<?xml version="1.0" encoding="iso-8859-1"?>
<!-- Generator: Adobe Illustrator 19.0.0, SVG Export Plug-In . SVG Version: 6.00 Build 0)  -->
<svg version="1.1" id="Layer_1" xmlns="http://www.w3.org/2000/svg" xmlns:xlink="http://www.w3.org/1999/xlink" x="0px" y="0px"
	 viewBox="0 0 496.3 496.3" style="enable-background:new 0 0 496.3 496.3;" xml:space="preserve">
<path style="fill:#337180;" d="M248.15,0c-137,0-248.1,111.1-248.1,248.1s111.1,248.1,248.1,248.1s248.1-111.1,248.1-248.1
	S385.15,0,248.15,0z"/>
<rect x="253.45" y="199.4" style="fill:#33160A;" width="75.3" height="141.3"/>
<g>
	<path style="fill:#CE936B;" d="M287.05,282.1h-77.8c12.1,36.6,1,53.3,1,53.3l26.9,6.1h22l26.9-6.1
		C286.05,335.4,274.95,318.7,287.05,282.1z"/>
	<path style="fill:#CE936B;" d="M247.95,317l-37.7,18.4c0,0,16.8,28.1,37.6,28.1c20.8,0,38.2-28.1,38.2-28.1L247.95,317z"/>
</g>
<path style="fill:#DB9A6E;" d="M248.15,77.1c-44,0-79.8,21.2-79.8,113.6c0,31.3,5.6,40.3,14,59.2c18.4,41.6,50.3,64.2,65.8,64.2
	s47.3-22.6,65.8-64.2c8.4-18.9,14-27.9,14-59.2C327.95,98.3,292.15,77.1,248.15,77.1z"/>
<path style="fill:#49210D;" d="M171.35,424.7l-1.9,1c0,0,0.8-0.3,2.1-1C171.35,424.7,171.35,424.7,171.35,424.7z"/>
<path style="fill:#33160A;" d="M222.15,121.1l2.7-50.3c-44.2,0-79.3,27.3-93.7,95.8c-3.6,17.2-13.7,94.8,32.5,191.5
	c24.4,51.1,13.9,63,7.8,66.6c3.1-0.6,69.1-14.9,43.6-76.1c-2.6-6.2,4.7-47.6-2.7-54.5c-0.3-0.3-0.7-0.8-1-1.4
	c-10.5-10.6-21-25-28.9-42.9c-3.2-7.2-6-12.9-8.2-19C170.55,220.9,195.15,137.1,222.15,121.1z"/>
<path style="fill:#CE9163;" d="M236.25,244.7c-0.4-1.5-0.5-3-0.8-4.7c-0.7,0.8-1,1.7-1.2,2.6c-0.2,0.9-0.2,1.8,0,2.6
	s0.7,1.7,1.4,2.3c0.7,0.7,1.7,1.1,2.8,1.3C237.25,247.4,236.65,246.2,236.25,244.7z"/>
<g>
	<path style="fill:#AD7550;" d="M244.75,244.8c-0.3-0.6-0.8-1.1-1.4-1.4c-0.6-0.3-1.3-0.4-2.2-0.2c-0.8,0.1-1.8,0.6-2.6,1.3
		c1.5-0.1,2.7,0.1,3.7,0.6s1.9,1.2,3,1.9C245.25,246.1,245.05,245.4,244.75,244.8z"/>
	<path style="fill:#AD7550;" d="M255.45,243.2c-0.8-0.2-1.6,0-2.2,0.2c-0.6,0.3-1.1,0.7-1.4,1.4c-0.3,0.6-0.5,1.3-0.4,2.2
		c1.1-0.7,1.9-1.4,3-1.9c1-0.5,2.1-0.7,3.7-0.6C257.25,243.8,256.35,243.4,255.45,243.2z"/>
</g>
<g>
	<path style="fill:#CE9163;" d="M262.05,242.6c-0.2-0.9-0.6-1.8-1.2-2.6c-0.3,1.7-0.4,3.2-0.8,4.7s-1,2.7-2.2,4.1
		c1.1-0.2,2.1-0.7,2.8-1.3c0.7-0.7,1.1-1.5,1.4-2.3C262.25,244.3,262.25,243.4,262.05,242.6z"/>
	<path style="fill:#CE9163;" d="M256.15,213.7c0.1-2.7,0.3-5.3,0.7-7.9c0.4-2.6,1.1-5.2,2.1-7.8c-1.7,2.2-2.9,4.7-3.7,7.4
		c-0.8,2.7-1.1,5.5-1.2,8.2c-0.1,2.8,0.2,5.5,0.7,8.3c0.5,2.7,1.2,5.4,2.4,7.9C256.55,224.4,256.05,219,256.15,213.7z"/>
	<path style="fill:#CE9163;" d="M240.15,211.4c-0.1-0.9-0.2-1.9-0.5-2.8c-0.2-0.9-0.6-1.8-1.1-2.6c-0.1,1-0.1,1.9-0.1,2.8
		c0,0.9,0.1,1.8,0.1,2.7c0.1,0.9,0.1,1.8,0.3,2.7c0.1,0.9,0.3,1.8,0.5,2.8c0.4-0.9,0.5-1.8,0.6-2.8
		C240.25,213.3,240.25,212.4,240.15,211.4z"/>
</g>
<path style="fill:#472B14;" d="M264.75,204.8c0,0.5,2.3,7.6,19.4,5.3c11.1-1.5,11.8-12.2,11.8-12.2
	C275.65,186.6,264.75,204.8,264.75,204.8z"/>
<path style="fill:#F7F0EB;" d="M264.75,204.8c0.1,1.1,1.1,1.5,2,1.8c24.5,8.5,28.2-7.4,28.2-7.4
	C275.15,191.7,264.75,204.8,264.75,204.8z"/>
<ellipse style="fill:#54341E;" cx="281.75" cy="201.5" rx="6.1" ry="6"/>
<g>
	<path style="fill:#472B14;" d="M295.35,196.1c-23.5-11.7-30.6,8.7-30.6,8.7s10-12.5,28.9-6.1c0.4,0,0.9,0.2,1.3,0.4
		c4.8,2.6,5.3-1.4,5.3-1.4C298.25,197.7,295.35,196.1,295.35,196.1z"/>
	<path style="fill:#472B14;" d="M305.75,189.3c-0.2-0.6-1.9-2.1-2.9-3c-12.2-11.5-25.7-8.7-33.6-5.8c-3.4,1.3-5.5,1.9-4.6,5.1
		c0.9,2.9,2.9,2.6,3.9,2.4c0.9-0.2,2.5-1,3.7-1.4c17.7-6.4,22.7-1.1,27.1,0.6C303.95,189,305.95,189.9,305.75,189.3z"/>
	<path style="fill:#472B14;" d="M200.15,197.9c0,0,0.7,10.7,11.8,12.2c17.1,2.3,19.4-4.8,19.4-5.3
		C231.35,204.8,220.45,186.6,200.15,197.9z"/>
</g>
<path style="fill:#F7F0EB;" d="M201.15,199.2c0,0,3.7,15.9,28.2,7.4c0.9-0.3,1.9-0.8,2-1.8C231.35,204.8,220.85,191.7,201.15,199.2z
	"/>
<ellipse style="fill:#54341E;" cx="214.35" cy="201.5" rx="6.1" ry="6"/>
<g>
	<path style="fill:#472B14;" d="M200.75,196.1c0,0-3,1.6-4.8,1.6c0,0,0.4,4,5.3,1.4c0.4-0.2,0.8-0.3,1.3-0.4
		c18.9-6.4,28.9,6.1,28.9,6.1S224.25,184.3,200.75,196.1z"/>
	<path style="fill:#472B14;" d="M226.85,180.5c-7.9-2.9-21.3-5.7-33.6,5.8c-1,0.9-2.7,2.4-2.9,3s1.7-0.3,6.4-2.2
		c4.4-1.8,9.4-7,27.1-0.6c1.2,0.4,2.7,1.2,3.7,1.4c0.9,0.2,3,0.5,3.9-2.4C232.35,182.4,230.25,181.8,226.85,180.5z"/>
</g>
<path style="fill:#D61818;" d="M258.55,262.3c-3-0.4-10.4,2.5-10.4,2.5s-7.6-2.9-10.6-2.5c-4.8,0.7-11.9,9-11.9,10.3
	c0,0,10.1,5.2,22.5,5.2c12.4,0,22.5-5.2,22.5-5.2S263.45,263,258.55,262.3z"/>
<path style="fill:#C11111;" d="M254.25,268.9c-2-0.1-4.5,1.7-6.1,1.7c-1.9,0-4.8-1.8-7-1.6c-13.1,0.8-15.5,3.6-15.5,3.6
	s10.1,9.1,22.5,9.1c12.4,0,22.5-9.1,22.5-9.1S267.95,269.7,254.25,268.9z"/>
<path style="fill:#E2A379;" d="M285.95,335.4c0,0-8.9,17.3-38.1,17.3s-37.5-17.3-37.5-17.3s-7,54.7,37.9,54.7
	S285.95,335.4,285.95,335.4z"/>
<path style="fill:#C11111;" d="M196.65,152c-0.1-3.3-1.4-5.9-3.5-7.4c1.2-2.9,1.5-6.3,0.4-9.1c-1.1-3-3.4-4.7-6-4.8
	c0.5-3.3-0.4-6.6-2.4-8.6c-1.9-1.9-4.6-2.3-7-1.3c-0.6-2.9-2.4-5.1-4.9-5.9c-2.6-0.8-5.5,0.3-7.7,2.5c-1.5-2.4-4.1-3.6-6.9-3
	c-2.7,0.6-5,2.7-6.5,5.5c-2.2-1.1-4.9-0.9-7.3,0.8c-2.6,1.9-4.3,5.1-4.8,8.3c-2.6-0.1-5.4,1.4-7.3,4.3c-1.9,2.7-2.6,6.1-2.1,9.1
	c-2.4,1.2-4.5,3.8-5.5,7c-1,3.4-0.6,6.9,0.9,9.3c-2.2,2.3-3.5,5.7-3.5,9.2c0.1,3.3,1.4,5.9,3.5,7.4c-1.2,2.9-1.5,6.3-0.4,9.1
	c1.1,3,3.4,4.7,6,4.8c-0.4,3.3,0.4,6.6,2.4,8.6c1.9,1.9,4.6,2.3,7,1.3c0.6,2.9,2.4,5.1,4.9,5.9c2.6,0.8,5.5-0.3,7.7-2.5
	c1.5,2.4,4.1,3.6,6.9,3c2.7-0.6,5-2.7,6.5-5.5c2.2,1.1,4.9,0.9,7.3-0.8c2.6-1.9,4.3-5.1,4.8-8.3c2.6,0.1,5.4-1.4,7.3-4.3
	c1.9-2.7,2.6-6.1,2.1-9.1c2.4-1.2,4.5-3.8,5.5-7c1-3.5,0.6-6.9-0.9-9.3C195.35,158.9,196.75,155.5,196.65,152z"/>
<path style="fill:#D33333;" d="M177.95,156.1c0-1.6-0.7-3-1.7-3.7c0.6-1.4,0.7-3.1,0.2-4.5c-0.6-1.5-1.7-2.3-3-2.4
	c0.2-1.6-0.2-3.3-1.2-4.3s-2.3-1.1-3.5-0.7c-0.3-1.4-1.2-2.5-2.4-2.9c-1.3-0.4-2.7,0.1-3.8,1.2c-0.8-1.2-2-1.8-3.4-1.5
	c-1.3,0.3-2.5,1.3-3.2,2.7c-1.1-0.6-2.4-0.5-3.6,0.4c-1.3,0.9-2.1,2.5-2.4,4.1c-1.3,0-2.7,0.7-3.6,2.2c-0.9,1.4-1.3,3-1.1,4.5
	c-1.2,0.6-2.2,1.9-2.7,3.5c-0.5,1.7-0.3,3.4,0.4,4.6c-1.1,1.1-1.8,2.8-1.7,4.5c0,1.6,0.7,3,1.7,3.7c-0.6,1.4-0.7,3.1-0.2,4.5
	c0.6,1.5,1.7,2.3,3,2.4c-0.2,1.6,0.2,3.3,1.2,4.3s2.3,1.1,3.5,0.7c0.3,1.4,1.2,2.5,2.4,2.9c1.3,0.4,2.7-0.1,3.8-1.2
	c0.8,1.2,2,1.8,3.4,1.5c1.3-0.3,2.5-1.3,3.2-2.7c1.1,0.6,2.4,0.5,3.6-0.4c1.3-0.9,2.1-2.5,2.4-4.1c1.3,0,2.7-0.7,3.6-2.2
	c0.9-1.4,1.3-3,1.1-4.5c1.2-0.6,2.2-1.9,2.7-3.5c0.5-1.7,0.3-3.4-0.4-4.6C177.35,159.5,178.05,157.8,177.95,156.1z"/>
<path style="fill:#CE936B;" d="M394.85,382.8c-7.3-27.3-69.9-49.3-147.1-49.3s-139.1,22.1-146.4,49.3c-3.3,12.2-7,35.2-10.1,57.5
	c42.7,34.9,97.4,55.9,156.9,55.9s114.1-21,156.9-55.9C401.85,417.9,398.15,394.9,394.85,382.8z"/>
<polygon style="fill:#AD7E5E;" points="248.15,418.9 242.65,448.6 253.65,448.6 "/>
<g>
	<path style="fill:#C11111;" d="M248.15,496.2V447c0,0-37.8-16.7-61-25.7s-85.7-38.6-85.7-38.6c-2.4,8.8-5,23.4-7.4,39.2
		c-0.9,6,50.3,24.3,50.3,24.3l-5.1,24.8C172.05,487.1,209.05,496.2,248.15,496.2z"/>
	<path style="fill:#C11111;" d="M95.15,414.9l44,3.7l7.5-70.1C78.45,332.8,95.15,414.9,95.15,414.9z"/>
	<path style="fill:#C11111;" d="M402.35,422c-2.5-15.9-5.1-30.4-7.4-39.2c0,0-62.4,29.6-85.7,38.6s-61,25.7-61,25.7v49.2
		c39.1,0,76.1-9,109-25.2l-5.1-24.8C352.05,446.2,403.25,428,402.35,422z"/>
	<path style="fill:#C11111;" d="M349.65,348.5l7.5,70.1l44-3.7C401.15,414.9,417.85,332.8,349.65,348.5z"/>
</g>
<path style="fill:#3D1B0C;" d="M355.65,194.9c-4.8-36.5-12.8-75.1-44.2-102.8c-8.2-7.2-41.3-21.3-86.7-21.3l-2.6,50.3
	c0,0,20.7,15.3,34.5,26.6c37.6,30.6,59.1,58.5,62.9,92.4c2.4,21.8-14.6,58.5-21.9,70.8c-6.7,11.2-13.2,31.5-15.8,37.7
	c-26.2,62.7,43.5,76.7,43.5,76.7l2.1,0.4c0,0-30.1-9.9,5.7-67.6c5.6-8.9,21-29.6,24.6-56C364.15,253.6,358.15,214.1,355.65,194.9z"
	/>
<g>
</g>
<g>
</g>
<g>
</g>
<g>
</g>
<g>
</g>
<g>
</g>
<g>
</g>
<g>
</g>
<g>
</g>
<g>
</g>
<g>
</g>
<g>
</g>
<g>
</g>
<g>
</g>
<g>
</g>
</svg>
