<?xml version="1.0" encoding="iso-8859-1"?>
<!-- Generator: Adobe Illustrator 19.0.0, SVG Export Plug-In . SVG Version: 6.00 Build 0)  -->
<svg version="1.1" id="Layer_1" xmlns="http://www.w3.org/2000/svg" xmlns:xlink="http://www.w3.org/1999/xlink" x="0px" y="0px"
	 viewBox="0 0 459.279 459.279" style="enable-background:new 0 0 459.279 459.279;" xml:space="preserve">
<g>
	<g>
		<path style="fill:#FCCF92;" d="M195.453,414.461c0.014,0.048,0.027,0.096,0.041,0.145c1.95,6.744,4.137,13.602,6.589,20.525
			c2.56,7.25,5.42,14.57,8.6,21.91c1.47,3.4,6.47,2.78,7.07-0.87c0.92-5.54,2.05-12.75,3.2-21.04
			c0.859-6.163,1.732-12.924,2.541-20.043c0.024-0.208,0.047-0.419,0.07-0.627L195.453,414.461L195.453,414.461z"/>
		<path style="fill:#FCCF92;" d="M235.717,414.461c0.029,0.261,0.058,0.525,0.088,0.785c0.803,7.061,1.668,13.768,2.519,19.885
			c1.15,8.29,2.28,15.5,3.2,21.04c0.61,3.65,5.61,4.27,7.08,0.87c3.18-7.34,6.04-14.66,8.6-21.91
			c2.47-6.973,4.669-13.879,6.629-20.67H235.717z"/>
	</g>
	<path style="fill:#333333;" d="M305.063,417.821c-14.49,2.19-29.05,3.74-43.64,4.65c-8.2,0.52-16.42,0.84-24.64,0.95
		c-4.76,0.07-9.52,0.07-14.29-0.01c-8.22-0.11-16.43-0.43-24.64-0.96c-14.58-0.92-29.14-2.48-43.62-4.67l22.14-131.29
		c4.39-26,26.9-45.03,53.27-45.03c13.18,0,25.4,4.76,34.87,12.76c9.48,8.01,16.2,19.27,18.39,32.27L305.063,417.821z"/>
	<path style="opacity:0.29;fill:#333333;enable-background:new    ;" d="M222.493,423.411c-0.31,2.51-0.62,4.95-0.94,7.32
		c-7.09-0.11-14.18-0.38-21.27-0.8c-0.84-2.51-1.65-5-2.43-7.48C206.063,422.981,214.274,423.301,222.493,423.411z"/>
	<rect x="196.303" y="225.791" style="fill:#ED4551;" width="66.67" height="27.2"/>
	<path style="opacity:0.29;fill:#333333;enable-background:new    ;" d="M261.423,422.471c-0.77,2.48-1.58,4.98-2.43,7.48h-0.01
		c-7.08,0.42-14.17,0.68-21.26,0.78c-0.31-2.36-0.63-4.8-0.94-7.31C245.003,423.311,253.224,422.991,261.423,422.471z"/>
	<path style="opacity:0.29;fill:#4D4D4D;enable-background:new    ;" d="M262.974,225.791v9.72c-3.97,0.16-6.02,3.08-8.06,5.99
		c-2.11,3-4.22,6-8.43,6c-4.21,0-6.32-3-8.43-6c-2.11-3-4.22-6-8.43-6c-4.21,0-6.31,3-8.42,6s-4.21,6-8.43,6s-6.32-3-8.43-6
		c-2.04-2.91-4.08-5.81-8.04-5.99v-9.72H262.974z"/>
	<path style="fill:#333333;" d="M202.083,435.131h18.87c-1.15,8.29-2.28,15.5-3.2,21.04c-0.6,3.65-5.6,4.27-7.07,0.87
		C207.503,449.701,204.643,442.381,202.083,435.131z"/>
	<path style="fill:#333333;" d="M257.203,435.131c-2.56,7.25-5.42,14.57-8.6,21.91c-1.47,3.4-6.47,2.78-7.08-0.87
		c-0.92-5.54-2.05-12.75-3.2-21.04H257.203z"/>
	<path style="fill:#4BC48A;" d="M297.203,371.221c-22.41,3.03-44.91,4.53-67.4,4.53c-22.59,0-45.19-1.52-67.71-4.57l1.16-6.9
		c44.16,5.94,88.63,5.96,132.79,0.04L297.203,371.221z"/>
	<path style="fill:#EDE970;" d="M300.143,388.621c-23.39,3.28-46.87,4.92-70.34,4.92c-23.58,0-47.16-1.65-70.65-4.96l1.17-6.91
		c46.1,6.49,92.55,6.5,138.65,0.05l0.3,1.77L300.143,388.621z"/>
	<path style="fill:#ED4551;" d="M303.073,405.991c-24.36,3.57-48.82,5.35-73.27,5.35c-24.56,0-49.12-1.8-73.58-5.4l1.09-6.45
		l0.08-0.45c48.04,7.04,96.47,7.06,144.51,0.05l0.07,0.4L303.073,405.991z"/>
	<path d="M229.641,151.372l-57.615,52.672l0,0c-12.322-10.019-18.52-25.745-16.346-41.478l16.581-119.98l17.483,4.113
		c-12.854,14.435-20.979,34.506-20.979,52.874C168.765,128.532,202.543,147.079,229.641,151.372z"/>
	<path d="M229.641,151.372l57.63,52.672l0,0c12.322-10.019,18.52-25.745,16.346-41.478l-16.581-119.98l-17.483,4.113
		c12.854,14.435,20.979,34.506,20.979,52.874C290.532,128.532,256.74,147.079,229.641,151.372z"/>
	<path style="fill:#FCCF92;" d="M250.173,162.961c-2.91-0.63-5.5-2.1-7.46-4.16c-1.88-1.94-3.22-4.39-3.79-7.14l-0.16-0.76
		c-2.97,0.32-6.02,0.47-9.12,0.47c-3.1,0-6.15-0.16-9.13-0.47l-0.13,0.64c-0.58,2.79-1.95,5.29-3.88,7.24
		c-1.99,2.03-4.58,3.48-7.49,4.08c-46.56,9.54-81.59,50.75-81.59,100.13c0,8.06,0.94,15.9,2.7,23.42c0.66,2.81,4.78,2.27,4.77-0.61
		v-0.22c0-29.282,13.29-55.459,34.165-72.838c1.584,6.58,7.523,11.514,14.572,11.514h84.884c8.25,0,15-6.75,15-15v-1.61
		c24.692,17.101,40.87,45.627,40.87,77.934v0.22c0,2.89,4.13,3.36,4.79,0.55c1.87-8,2.8-16.37,2.67-24.97
		C331.113,213.921,295.464,172.711,250.173,162.961z"/>
	<path style="fill:#333333;" d="M329.001,230.491c-3.08,0.7-4.87,3.25-6.66,5.8c-2.11,3-4.21,6-8.43,6s-6.32-3-8.43-6
		s-4.21-6-8.43-6s-6.32,3-8.43,6s-4.21,6-8.43,6s-6.32-3-8.43-6s-4.21-6-8.43-6c-4.21,0-6.32,3-8.42,6c-2.11,3-4.22,6-8.43,6
		s-6.32-3-8.43-6s-4.22-6-8.43-6c-4.21,0-6.31,3-8.42,6s-4.21,6-8.43,6s-6.32-3-8.43-6s-4.21-6-8.42-6c-4.21,0-6.32,3-8.43,6
		c-2.1,3-4.21,6-8.42,6c-4.22,0-6.32-3-8.43-6s-4.21-6-8.43-6c-4.21,0-6.32,3-8.42,6c-2.11,3-4.22,6-8.43,6s-6.32-3-8.43-6
		c-1.78-2.55-3.57-5.09-6.65-5.8l0.3-0.99c0.4-1.3,0.83-2.58,1.3-3.85c0.35-0.96,0.73-1.9,1.13-2.83c1.23-2.92,2.67-5.74,4.3-8.45
		c0.93-1.54,1.91-3.05,2.97-4.51c2.15-3.03,4.57-5.89,7.23-8.53h164.26c2.66,2.65,5.08,5.5,7.24,8.53
		c2.89,4.03,5.32,8.38,7.25,12.95c0.41,0.94,0.78,1.88,1.13,2.84c0.48,1.27,0.91,2.55,1.31,3.85L329.001,230.491z"/>
	<path style="fill:#4BC48A;" d="M327.393,225.651c-1.48,1-2.62,2.64-3.82,4.34c-2.2,3.12-4.67,6.64-9.66,6.64s-7.46-3.52-9.64-6.62
		c-2.05-2.91-3.79-5.38-7.22-5.38s-5.17,2.47-7.19,5.34c-2.21,3.14-4.68,6.66-9.67,6.66c-4.99,0-7.46-3.52-9.64-6.62
		c-2.05-2.91-3.79-5.38-7.22-5.38c-3.44,0-5.18,2.48-7.19,5.36c-2.19,3.11-4.67,6.64-9.66,6.64s-7.47-3.53-9.66-6.64
		c-2.02-2.88-3.77-5.36-7.2-5.36c-3.42,0-5.16,2.47-7.18,5.34c-2.21,3.14-4.68,6.66-9.67,6.66s-7.46-3.52-9.64-6.62
		c-2.05-2.91-3.79-5.38-7.21-5.38c-3.43,0-5.18,2.48-7.21,5.36c-2.17,3.11-4.64,6.64-9.64,6.64c-4.99,0-7.46-3.52-9.64-6.62
		c-2.05-2.91-3.79-5.38-7.22-5.38c-3.44,0-5.18,2.48-7.19,5.36c-2.19,3.11-4.67,6.64-9.66,6.64s-7.47-3.53-9.66-6.64
		c-1.19-1.71-2.33-3.34-3.82-4.34c0.35-0.96,0.73-1.9,1.13-2.83c2.25,1.29,3.77,3.47,5.15,5.45c2.02,2.87,3.77,5.36,7.2,5.36
		s5.18-2.49,7.2-5.37c2.18-3.11,4.65-6.63,9.65-6.63c4.99,0,7.46,3.51,9.64,6.61c2.05,2.91,3.79,5.39,7.22,5.39
		c3.44,0,5.18-2.49,7.19-5.36c2.19-3.12,4.67-6.64,9.66-6.64c4.98,0,7.45,3.51,9.63,6.61c2.04,2.91,3.79,5.39,7.22,5.39
		c3.43,0,5.17-2.48,7.19-5.35c2.21-3.14,4.68-6.65,9.66-6.65c4.99,0,7.47,3.52,9.65,6.63c2.03,2.88,3.78,5.37,7.21,5.37
		c3.43,0,5.18-2.49,7.2-5.37c2.18-3.11,4.65-6.63,9.65-6.63c4.99,0,7.46,3.51,9.64,6.61c2.04,2.91,3.79,5.39,7.22,5.39
		s5.17-2.48,7.19-5.35c2.21-3.14,4.68-6.65,9.67-6.65c4.99,0,7.46,3.51,9.64,6.61c2.05,2.91,3.79,5.39,7.22,5.39
		s5.17-2.48,7.19-5.35c1.39-1.99,2.92-4.16,5.16-5.47C326.673,223.751,327.044,224.691,327.393,225.651z"/>
	<path style="fill:#ED4551;" d="M319.006,209.861h-178.73c2.15-3.03,4.57-5.89,7.23-8.53h164.26
		C314.426,203.981,316.846,206.831,319.006,209.861z"/>
	<path style="opacity:0.29;fill:#4D4D4D;enable-background:new    ;" d="M242.714,158.801c-4.07,1.53-8.47,2.36-13.07,2.36
		c-4.62,0-9.05-0.84-13.14-2.38c1.93-1.95,3.3-4.45,3.88-7.24l0.13-2.64c2.98,0.31,6.03,0.47,9.13,0.47s6.15-0.15,9.12-0.47
		l0.16,2.76C239.493,154.411,240.833,156.861,242.714,158.801z"/>
	<g>
		<circle style="fill:#ED4551;" cx="166.701" cy="115.318" r="7.589"/>
		<circle style="fill:#ED4551;" cx="292.582" cy="115.318" r="7.589"/>
	</g>
	<path style="fill:#FCCF92;" d="M290.513,99.571c0,30.51-22.46,48.31-51.75,51.33c-2.97,0.32-6.02,0.47-9.12,0.47
		c-3.1,0-6.15-0.16-9.13-0.47c-1.49-0.15-2.97-0.34-4.42-0.57c-27.1-4.29-47.33-21.8-47.33-50.76c0-18.37,8.13-38.44,20.98-52.87
		c10.69-12,24.65-20.11,39.9-20.11C263.263,26.591,290.513,65.951,290.513,99.571z"/>
	<path style="opacity:0.29;fill:#4D4D4D;enable-background:new    ;" d="M265.132,21.612c-6.982-7.725-20.255-12.945-35.491-12.945
		s-28.509,5.22-35.491,12.945c-12.674,3.894-21.889,15.69-21.889,29.641c0,17.124,13.882,31.006,31.006,31.006
		c11.143,0,20.909-5.881,26.374-14.706c5.466,8.825,15.231,14.706,26.374,14.706c17.124,0,31.006-13.882,31.006-31.006
		C287.021,37.302,277.806,25.506,265.132,21.612z"/>
	<path style="fill:#FFFFFF;" d="M241.594,97.691c0,2.02-0.23,3.97-0.67,5.77c-1.62,6.86-6.06,11.78-11.28,11.78
		s-9.67-4.92-11.29-11.78c-0.44-1.8-0.67-3.75-0.67-5.77H241.594z"/>
	<g>
		<path d="M209.291,91.149c0,0-0.303-0.04-0.778-0.17c-0.234-0.078-0.532-0.14-0.829-0.189c-0.299-0.06-0.603-0.132-0.969-0.186
			c-0.345-0.076-0.715-0.135-1.097-0.184c-0.368-0.082-0.776-0.08-1.158-0.154c-0.403-0.009-0.794-0.077-1.2-0.08
			c-0.401-0.034-0.808-0.022-1.213-0.038c-0.405,0.017-0.811,0.008-1.212,0.041c-0.406,0.007-0.797,0.069-1.199,0.082
			c-0.382,0.074-0.79,0.072-1.157,0.155c-0.382,0.048-0.752,0.107-1.097,0.183c-0.361,0.049-0.683,0.133-0.987,0.199
			c-0.309,0.06-0.594,0.111-0.817,0.178c-0.461,0.116-0.775,0.164-0.775,0.164s0.059-0.289,0.251-0.763
			c0.092-0.242,0.22-0.528,0.416-0.818c0.187-0.301,0.415-0.637,0.719-0.948c0.148-0.161,0.311-0.322,0.481-0.492
			c0.18-0.151,0.376-0.296,0.578-0.452c0.401-0.321,0.882-0.551,1.382-0.808c0.517-0.196,1.06-0.427,1.642-0.519
			c0.574-0.15,1.177-0.162,1.776-0.201c0.599,0.039,1.201,0.054,1.776,0.204c0.581,0.096,1.125,0.322,1.641,0.521
			c0.499,0.257,0.981,0.488,1.381,0.808c0.202,0.156,0.398,0.299,0.578,0.452c0.17,0.17,0.334,0.329,0.481,0.491
			c0.299,0.306,0.545,0.654,0.737,0.96c0.208,0.3,0.323,0.576,0.404,0.807C209.221,90.852,209.291,91.149,209.291,91.149z"/>
		<path d="M264.482,91.149c0,0-0.303-0.04-0.778-0.17c-0.234-0.078-0.532-0.14-0.829-0.189c-0.299-0.06-0.603-0.132-0.969-0.186
			c-0.345-0.076-0.715-0.135-1.097-0.184c-0.368-0.082-0.776-0.08-1.158-0.154c-0.403-0.009-0.794-0.077-1.2-0.08
			c-0.401-0.034-0.808-0.022-1.213-0.038c-0.405,0.017-0.811,0.008-1.212,0.041c-0.406,0.007-0.797,0.069-1.199,0.082
			c-0.382,0.074-0.79,0.073-1.157,0.155c-0.382,0.048-0.752,0.107-1.097,0.183c-0.361,0.049-0.683,0.133-0.987,0.199
			c-0.309,0.06-0.594,0.111-0.817,0.178c-0.461,0.116-0.775,0.164-0.775,0.164s0.059-0.289,0.251-0.763
			c0.092-0.242,0.22-0.528,0.416-0.818c0.187-0.301,0.415-0.637,0.719-0.948c0.148-0.161,0.311-0.322,0.481-0.492
			c0.18-0.151,0.376-0.296,0.578-0.452c0.401-0.321,0.882-0.551,1.382-0.808c0.517-0.196,1.06-0.427,1.642-0.519
			c0.574-0.15,1.177-0.162,1.776-0.201c0.599,0.039,1.201,0.054,1.776,0.204c0.581,0.096,1.125,0.322,1.641,0.521
			c0.499,0.257,0.981,0.488,1.381,0.808c0.202,0.156,0.398,0.299,0.578,0.452c0.17,0.17,0.334,0.329,0.481,0.491
			c0.299,0.306,0.545,0.654,0.737,0.96c0.208,0.3,0.323,0.576,0.404,0.807C264.411,90.852,264.482,91.149,264.482,91.149z"/>
	</g>
	<path d="M265.132,12.945C258.151,5.22,244.878,0,229.641,0c-15.236,0-28.509,5.22-35.491,12.945
		c-12.674,3.894-21.889,15.69-21.889,29.641c0,17.124,13.882,31.006,31.006,31.006c11.143,0,20.909-5.881,26.374-14.706
		c5.466,8.824,15.231,14.706,26.374,14.706c17.124,0,31.006-13.882,31.006-31.006C287.021,28.636,277.806,16.839,265.132,12.945z"/>
	<path style="fill:#ED4551;" d="M211.131,31.175c0-3.771-3.057-6.828-6.828-6.828c-0.377,0-0.745,0.038-1.105,0.097
		c0.297-0.213,0.584-0.446,0.851-0.713c2.666-2.666,2.666-6.989,0-9.656c-2.666-2.666-6.989-2.666-9.656,0
		c-0.267,0.267-0.499,0.554-0.713,0.851c0.059-0.361,0.097-0.728,0.097-1.105c0-3.771-3.057-6.828-6.828-6.828
		s-6.828,3.057-6.828,6.828c0,0.377,0.039,0.745,0.097,1.105c-0.213-0.297-0.446-0.584-0.713-0.851
		c-2.666-2.666-6.989-2.666-9.656,0c-2.666,2.666-2.666,6.989,0,9.656c0.267,0.267,0.554,0.499,0.85,0.713
		c-0.361-0.059-0.728-0.097-1.105-0.097c-3.771,0-6.828,3.057-6.828,6.828s3.057,6.828,6.828,6.828c0.377,0,0.745-0.039,1.105-0.097
		c-0.297,0.213-0.584,0.446-0.85,0.713c-2.666,2.666-2.666,6.989,0,9.656c2.666,2.666,6.989,2.666,9.656,0
		c0.267-0.267,0.499-0.554,0.713-0.85c-0.059,0.361-0.097,0.728-0.097,1.105c0,3.771,3.057,6.828,6.828,6.828
		s6.828-3.057,6.828-6.828c0-0.377-0.039-0.745-0.097-1.105c0.213,0.297,0.446,0.584,0.713,0.851c2.666,2.666,6.989,2.666,9.656,0
		c2.666-2.666,2.666-6.989,0-9.656c-0.267-0.267-0.554-0.499-0.85-0.713c0.361,0.059,0.728,0.097,1.105,0.097
		C208.074,38.003,211.131,34.946,211.131,31.175z"/>
	<circle style="fill:#F7931E;" cx="186.95" cy="31.175" r="13.693"/>
</g>
<g>
</g>
<g>
</g>
<g>
</g>
<g>
</g>
<g>
</g>
<g>
</g>
<g>
</g>
<g>
</g>
<g>
</g>
<g>
</g>
<g>
</g>
<g>
</g>
<g>
</g>
<g>
</g>
<g>
</g>
</svg>
