<?xml version="1.0" encoding="iso-8859-1"?>
<!-- Generator: Adobe Illustrator 18.0.0, SVG Export Plug-In . SVG Version: 6.00 Build 0)  -->
<!DOCTYPE svg PUBLIC "-//W3C//DTD SVG 1.1//EN" "http://www.w3.org/Graphics/SVG/1.1/DTD/svg11.dtd">
<svg version="1.1" id="Capa_1" xmlns="http://www.w3.org/2000/svg" xmlns:xlink="http://www.w3.org/1999/xlink" x="0px" y="0px"
	 viewBox="0 0 189.533 189.533" style="enable-background:new 0 0 189.533 189.533;" xml:space="preserve">
<g id="SKULL">
	<g>
		<path style="fill:#EAFFEA;" d="M67.221,106.478c2.601-0.847,2.727-6.583,4.889-8.157c0.138-0.096,0.288-0.185,0.443-0.262
			c2.414-1.137,7.339,0.173,8.828-1.875c1.574-2.163-1.676-6.875-0.828-9.477c0.816-2.505,6.239-4.396,6.239-7.177
			c0-2.779-5.423-4.665-6.239-7.175c-0.848-2.601,2.402-7.309,0.828-9.469c-1.441-1.982-6.09-0.824-8.575-1.768
			c-0.259-0.101-0.493-0.221-0.696-0.372c-2.162-1.573-2.288-7.314-4.889-8.154c-2.51-0.817-5.975,3.722-8.756,3.722
			c-2.78,0-6.245-4.54-8.756-3.722c-2.594,0.84-2.726,6.581-4.887,8.154c-2.188,1.592-7.682-0.048-9.272,2.14
			c-1.573,2.16,1.675,6.869,0.828,9.469c-0.811,2.51-6.233,4.396-6.233,7.175c0,2.781,5.417,4.672,6.233,7.177
			c0.847,2.601-2.401,7.314-0.828,9.477c1.591,2.186,7.085,0.546,9.272,2.137c0.336,0.247,0.624,0.596,0.882,1.009
			c1.382,2.24,1.813,6.433,4.005,7.147c2.511,0.815,5.976-3.731,8.756-3.731C61.246,102.747,64.711,107.293,67.221,106.478z
			 M52.826,93.152c-0.252-0.107-0.553-0.155-0.877-0.162c-1.753-0.06-4.336,1.094-6.101,1.062c-0.576-0.011-1.063-0.144-1.41-0.491
			c-1.592-1.592,1.291-6.275,0.414-8.39c-0.847-2.037-6.227-3.29-6.227-5.64c0-2.34,5.38-3.596,6.227-5.638
			c0.877-2.108-2.006-6.798-0.414-8.39c1.398-1.4,5.182,0.66,7.512,0.578c0.324-0.007,0.625-0.055,0.877-0.162
			c2.041-0.847,3.297-6.222,5.639-6.222s3.604,5.375,5.639,6.222c0.252,0.107,0.553,0.155,0.877,0.162
			c1.736,0.06,4.275-1.064,6.041-1.064c0.601,0,1.117,0.132,1.472,0.486c1.592,1.592-1.284,6.282-0.414,8.39
			c0.847,2.042,6.228,3.297,6.228,5.638c0,2.35-5.381,3.604-6.228,5.64c-0.87,2.115,2.006,6.798,0.414,8.39
			c-0.36,0.361-0.87,0.491-1.478,0.491c-1.765,0-4.305-1.121-6.035-1.062c-0.324,0.007-0.625,0.055-0.877,0.162
			c-2.035,0.84-3.297,6.22-5.639,6.22S54.867,93.992,52.826,93.152z"/>
		<path style="fill:#EAFFEA;" d="M153.154,86.707c0.811-2.505,6.234-4.396,6.234-7.177c0-2.779-5.424-4.665-6.234-7.175
			c-0.846-2.601,2.402-7.309,0.829-9.469c-1.44-1.982-6.089-0.824-8.575-1.768c-0.258-0.101-0.492-0.221-0.697-0.372
			c-2.161-1.573-2.287-7.314-4.888-8.154c-2.51-0.817-5.975,3.722-8.755,3.722c-2.781,0-6.246-4.54-8.756-3.722
			c-2.601,0.84-2.727,6.581-4.889,8.154c-2.186,1.592-7.68-0.048-9.271,2.14c-1.574,2.16,1.675,6.869,0.828,9.469
			c-0.816,2.51-6.238,4.396-6.238,7.175c0,2.781,5.422,4.672,6.238,7.177c0.847,2.601-2.402,7.314-0.828,9.477
			c1.592,2.186,7.086,0.546,9.271,2.137c0.336,0.247,0.625,0.596,0.883,1.009c1.381,2.24,1.814,6.433,4.006,7.147
			c2.51,0.815,5.975-3.731,8.756-3.731c2.779,0,6.245,4.546,8.755,3.731c2.601-0.847,2.727-6.583,4.888-8.157
			c0.139-0.096,0.289-0.185,0.445-0.262c2.414-1.137,7.338,0.173,8.827-1.875C155.557,94.021,152.309,89.309,153.154,86.707z
			 M144.682,85.171c-0.877,2.115,2.006,6.798,0.414,8.39c-0.36,0.361-0.871,0.491-1.477,0.491c-1.766,0-4.307-1.121-6.035-1.062
			c-0.324,0.007-0.625,0.055-0.877,0.162c-2.043,0.84-3.297,6.22-5.639,6.22c-2.342,0-3.604-5.38-5.639-6.22
			c-0.253-0.107-0.553-0.155-0.877-0.162c-1.754-0.06-4.336,1.094-6.102,1.062c-0.577-0.011-1.063-0.144-1.412-0.491
			c-1.591-1.592,1.285-6.275,0.415-8.39c-0.847-2.037-6.228-3.29-6.228-5.64c0-2.34,5.381-3.596,6.228-5.638
			c0.877-2.108-2.006-6.798-0.415-8.39c1.4-1.4,5.184,0.66,7.514,0.578c0.324-0.007,0.624-0.055,0.877-0.162
			c2.035-0.847,3.297-6.222,5.639-6.222c2.342,0,3.596,5.375,5.639,6.222c0.252,0.107,0.553,0.155,0.877,0.162
			c1.734,0.06,4.275-1.064,6.041-1.064c0.6,0,1.117,0.132,1.471,0.486c1.592,1.592-1.291,6.282-0.414,8.39
			c0.847,2.042,6.228,3.297,6.228,5.638C150.909,81.88,145.528,83.134,144.682,85.171z"/>
		<path style="fill:#F21073;" d="M64.103,93.152c0.252-0.107,0.553-0.155,0.877-0.162c1.73-0.06,4.27,1.062,6.035,1.062
			c0.607,0,1.117-0.13,1.478-0.491c1.592-1.592-1.284-6.275-0.414-8.39c0.847-2.037,6.228-3.29,6.228-5.64
			c0-2.34-5.381-3.596-6.228-5.638c-0.87-2.108,2.006-6.798,0.414-8.39c-0.354-0.354-0.87-0.486-1.472-0.486
			c-1.766,0-4.305,1.124-6.041,1.064c-0.324-0.007-0.625-0.055-0.877-0.162c-2.035-0.847-3.297-6.222-5.639-6.222
			s-3.598,5.375-5.639,6.222c-0.252,0.107-0.553,0.155-0.877,0.162c-2.33,0.083-6.113-1.978-7.512-0.578
			c-1.592,1.592,1.291,6.282,0.414,8.39c-0.847,2.042-6.227,3.297-6.227,5.638c0,2.35,5.38,3.604,6.227,5.64
			c0.877,2.115-2.006,6.798-0.414,8.39c0.348,0.347,0.834,0.479,1.41,0.491c1.766,0.032,4.349-1.121,6.101-1.062
			c0.324,0.007,0.625,0.055,0.877,0.162c2.041,0.84,3.297,6.22,5.639,6.22S62.068,93.992,64.103,93.152z M51.998,91.891
			c-0.211,0-0.402-0.048-0.583-0.15c-1.747-1.016,0.276-5.962-0.733-7.716c-0.983-1.694-6.311-2.391-6.311-4.494
			c0-2.101,5.327-2.791,6.311-4.492c1.01-1.747-1.014-6.695,0.733-7.711c0.181-0.101,0.372-0.148,0.583-0.148
			c1.783,0,4.588,3.368,6.467,3.368c1.88,0,4.685-3.368,6.468-3.368c0.21,0,0.402,0.048,0.583,0.148
			c1.748,1.016-0.276,5.964,0.732,7.718c0.984,1.694,6.312,2.384,6.312,4.485c0,2.103-5.327,2.8-6.312,4.494
			c-1.009,1.753,1.016,6.7-0.732,7.716c-0.181,0.103-0.373,0.15-0.583,0.15c-1.783,0-4.588-3.37-6.468-3.37
			C56.586,88.521,53.781,91.891,51.998,91.891z"/>
		<path style="fill:#F21073;" d="M144.682,73.893c-0.877-2.108,2.006-6.798,0.414-8.39c-0.353-0.354-0.871-0.486-1.471-0.486
			c-1.766,0-4.307,1.124-6.041,1.064c-0.324-0.007-0.625-0.055-0.877-0.162c-2.043-0.847-3.297-6.222-5.639-6.222
			c-2.342,0-3.604,5.375-5.639,6.222c-0.253,0.107-0.553,0.155-0.877,0.162c-2.33,0.083-6.113-1.978-7.514-0.578
			c-1.591,1.592,1.292,6.282,0.415,8.39c-0.847,2.042-6.228,3.297-6.228,5.638c0,2.35,5.381,3.604,6.228,5.64
			c0.87,2.115-2.006,6.798-0.415,8.39c0.349,0.347,0.835,0.479,1.412,0.491c1.766,0.032,4.348-1.121,6.102-1.062
			c0.324,0.007,0.624,0.055,0.877,0.162c2.035,0.84,3.297,6.22,5.639,6.22c2.342,0,3.596-5.38,5.639-6.22
			c0.252-0.107,0.553-0.155,0.877-0.162c1.729-0.06,4.27,1.062,6.035,1.062c0.605,0,1.116-0.13,1.477-0.491
			c1.592-1.592-1.291-6.275-0.414-8.39c0.847-2.037,6.228-3.29,6.228-5.64C150.909,77.19,145.528,75.935,144.682,73.893z
			 M138.851,84.025c-1.015,1.753,1.015,6.7-0.733,7.716c-0.18,0.103-0.371,0.15-0.582,0.15c-1.783,0-4.588-3.37-6.467-3.37
			c-1.88,0-4.685,3.37-6.469,3.37c-0.209,0-0.402-0.048-0.582-0.15c-1.754-1.016,0.275-5.962-0.732-7.716
			c-0.984-1.694-6.312-2.391-6.312-4.494c0-2.101,5.327-2.791,6.312-4.492c1.008-1.747-1.021-6.695,0.732-7.711
			c0.18-0.101,0.373-0.148,0.582-0.148c1.784,0,4.589,3.368,6.469,3.368c1.879,0,4.684-3.368,6.467-3.368
			c0.211,0,0.402,0.048,0.582,0.148c1.748,1.016-0.281,5.964,0.733,7.718c0.985,1.694,6.311,2.384,6.311,4.485
			C145.162,81.634,139.836,82.331,138.851,84.025z"/>
		<path style="fill:#F8840E;" d="M64.933,91.891c0.21,0,0.402-0.048,0.583-0.15c1.748-1.016-0.276-5.962,0.732-7.716
			c0.984-1.694,6.312-2.391,6.312-4.494c0-2.101-5.327-2.791-6.312-4.485c-1.009-1.753,1.016-6.702-0.732-7.718
			c-0.181-0.101-0.373-0.148-0.583-0.148c-1.783,0-4.588,3.368-6.468,3.368c-1.879,0-4.683-3.368-6.467-3.368
			c-0.211,0-0.402,0.048-0.583,0.148c-1.747,1.016,0.276,5.964-0.733,7.711c-0.983,1.701-6.311,2.391-6.311,4.492
			c0,2.103,5.327,2.8,6.311,4.494c1.01,1.753-1.014,6.7,0.733,7.716c0.181,0.103,0.372,0.15,0.583,0.15
			c1.783,0,4.588-3.37,6.467-3.37C60.345,88.521,63.149,91.891,64.933,91.891z M50.725,79.531c0-4.27,3.465-7.734,7.74-7.734
			c4.275,0,7.74,3.464,7.74,7.734c0,4.277-3.465,7.741-7.74,7.741C54.189,87.272,50.725,83.808,50.725,79.531z"/>
		<path style="fill:#F8840E;" d="M138.851,75.046c-1.015-1.753,1.015-6.702-0.733-7.718c-0.18-0.101-0.371-0.148-0.582-0.148
			c-1.783,0-4.588,3.368-6.467,3.368c-1.88,0-4.685-3.368-6.469-3.368c-0.209,0-0.402,0.048-0.582,0.148
			c-1.754,1.016,0.275,5.964-0.732,7.711c-0.984,1.701-6.312,2.391-6.312,4.492c0,2.103,5.327,2.8,6.312,4.494
			c1.008,1.753-1.021,6.7,0.732,7.716c0.18,0.103,0.373,0.15,0.582,0.15c1.784,0,4.589-3.37,6.469-3.37
			c1.879,0,4.684,3.37,6.467,3.37c0.211,0,0.402-0.048,0.582-0.15c1.748-1.016-0.281-5.962,0.733-7.716
			c0.985-1.694,6.311-2.391,6.311-4.494C145.162,77.43,139.836,76.74,138.851,75.046z M131.068,87.272
			c-4.275,0-7.741-3.464-7.741-7.741c0-4.27,3.466-7.734,7.741-7.734c4.275,0,7.74,3.464,7.74,7.734
			C138.809,83.808,135.344,87.272,131.068,87.272z"/>
		<path style="fill:#630F35;" d="M66.205,79.531c0-4.27-3.465-7.734-7.74-7.734c-4.275,0-7.74,3.464-7.74,7.734
			c0,4.277,3.465,7.741,7.74,7.741C62.74,87.272,66.205,83.808,66.205,79.531z"/>
		<path style="fill:#630F35;" d="M131.068,71.797c-4.275,0-7.741,3.464-7.741,7.734c0,4.277,3.466,7.741,7.741,7.741
			c4.275,0,7.74-3.464,7.74-7.741C138.809,75.261,135.344,71.797,131.068,71.797z"/>
		<path style="fill:#6DD47E;" d="M96.136,0C2.834,0,20.008,120.211,20.008,120.211c20.363,7.969,30.686,21.414,35.905,32.571
			c4.9,10.479,5.309,18.941,5.309,18.941c33.772,40.073,66.399,0,66.399,0c0-7.122,1.832-13.536,4.726-19.217
			c10.827-21.253,36.487-32.295,36.487-32.295S189.444,0,96.136,0z M150.909,49.903c1.429,0,2.589,1.158,2.589,2.594
			c0,1.429-1.16,2.587-2.589,2.587c-1.436,0-2.595-1.158-2.595-2.587C148.314,51.061,149.474,49.903,150.909,49.903z
			 M131.068,43.884c1.429,0,2.588,1.16,2.588,2.589c0,1.429-1.159,2.587-2.588,2.587c-1.43,0-2.588-1.158-2.588-2.587
			C128.48,45.043,129.639,43.884,131.068,43.884z M102.339,24.89c0.048-0.029,0.108-0.029,0.149-0.004l10.895,5.405
			c1.903,0.943,2.516,3.338,1.363,5.343c-1.147,2.012-3.621,2.884-5.52,1.935c-0.708-0.35-1.236-0.9-1.561-1.562l-5.404-10.892
			C102.219,25.034,102.255,24.938,102.339,24.89z M113.821,52.49c0,1.436-1.165,2.594-2.595,2.594c-1.429,0-2.588-1.158-2.588-2.594
			c0-1.43,1.159-2.587,2.588-2.587C112.656,49.903,113.821,51.061,113.821,52.49z M94.767,103.48c1.267,0,2.444,0.678,3.081,1.779
			l9.854,17.066c0.361,0.557,0.571,1.219,0.571,1.934c0,1.961-1.598,3.56-3.562,3.56c0,0,0,0-0.006,0H84.822
			c-1.273,0-2.444-0.678-3.081-1.784c-0.636-1.098-0.636-2.455,0-3.555l9.938-17.222C92.316,104.158,93.493,103.48,94.767,103.48z
			 M92.179,62.286c0-1.43,1.159-2.589,2.588-2.589c1.429,0,2.588,1.16,2.588,2.589c0,1.427-1.159,2.587-2.588,2.587
			C93.338,64.873,92.179,63.713,92.179,62.286z M89.506,39.285l5.045-14.989c0.035-0.107,0.162-0.169,0.281-0.137
			c0.072,0.023,0.127,0.078,0.15,0.137l5.045,14.989c0.883,2.619-0.763,5.382-3.663,6.175c-2.907,0.792-5.976-0.685-6.858-3.304
			C89.176,41.182,89.199,40.191,89.506,39.285z M74.589,31.852c0.349-0.71,0.901-1.238,1.562-1.562l10.894-5.405
			c0.077-0.043,0.175-0.007,0.222,0.078c0.03,0.048,0.03,0.107,0.006,0.151l-5.404,10.892c-0.943,1.904-3.339,2.516-5.344,1.363
			C74.512,36.223,73.646,33.748,74.589,31.852z M81.273,52.497c0,1.429-1.16,2.587-2.588,2.587c-1.43,0-2.589-1.158-2.589-2.587
			c0-1.437,1.159-2.594,2.589-2.594C80.113,49.903,81.273,51.061,81.273,52.497z M58.844,43.884c1.436,0,2.594,1.16,2.594,2.589
			c0,1.429-1.158,2.594-2.594,2.594c-1.43,0-2.588-1.165-2.588-2.594C56.256,45.043,57.414,43.884,58.844,43.884z M39.009,49.903
			c1.429,0,2.587,1.165,2.587,2.594c0,1.429-1.158,2.587-2.587,2.587c-1.43,0-2.595-1.158-2.595-2.587
			C36.414,51.067,37.579,49.903,39.009,49.903z M24.404,67.467c0-1.429,1.164-2.587,2.594-2.587c1.43,0,2.588,1.158,2.588,2.587
			c0,1.43-1.158,2.594-2.588,2.594C25.568,70.062,24.404,68.897,24.404,67.467z M28.542,116.692c-1.43,0-2.589-1.16-2.589-2.587
			c0-1.43,1.159-2.597,2.589-2.597c1.429,0,2.588,1.167,2.588,2.597C31.13,115.532,29.971,116.692,28.542,116.692z M42.635,125.129
			c-1.428,0-2.594-1.16-2.594-2.589c0-1.427,1.166-2.587,2.594-2.587c1.43,0,2.589,1.16,2.589,2.587
			C45.224,123.969,44.064,125.129,42.635,125.129z M49.709,106.478c-2.191-0.715-2.623-4.907-4.005-7.147
			c-0.258-0.413-0.546-0.763-0.882-1.009c-2.188-1.591-7.682,0.048-9.272-2.137c-1.573-2.163,1.675-6.875,0.828-9.477
			c-0.816-2.505-6.233-4.396-6.233-7.177c0-2.779,5.423-4.665,6.233-7.175c0.847-2.601-2.401-7.309-0.828-9.469
			c1.591-2.188,7.085-0.548,9.272-2.14c2.161-1.573,2.293-7.314,4.887-8.154c2.511-0.817,5.976,3.722,8.756,3.722
			c2.781,0,6.246-4.54,8.756-3.722c2.601,0.84,2.727,6.581,4.889,8.154c0.203,0.151,0.438,0.271,0.696,0.372
			c2.485,0.943,7.134-0.214,8.575,1.768c1.574,2.16-1.676,6.869-0.828,9.469c0.816,2.51,6.239,4.396,6.239,7.175
			c0,2.781-5.423,4.672-6.239,7.177c-0.848,2.601,2.402,7.314,0.828,9.477c-1.489,2.048-6.414,0.738-8.828,1.875
			c-0.155,0.078-0.306,0.167-0.443,0.262c-2.162,1.574-2.288,7.31-4.889,8.157c-2.51,0.815-5.975-3.731-8.756-3.731
			C55.685,102.747,52.22,107.293,49.709,106.478z M55.877,138.143c-1.436,0-2.594-1.16-2.594-2.589c0-1.429,1.158-2.594,2.594-2.594
			c1.43,0,2.588,1.164,2.588,2.594C58.465,136.983,57.307,138.143,55.877,138.143z M64.453,153.479c-0.895,0-1.682-0.45-2.15-1.14
			c-0.276-0.416-0.438-0.913-0.438-1.448c0-1.429,1.159-2.594,2.589-2.594c1.428,0,2.588,1.165,2.588,2.594
			C67.041,152.321,65.881,153.479,64.453,153.479z M68.794,171.97c-1.429,0-2.589-1.16-2.589-2.59c0-1.429,1.16-2.587,2.589-2.587
			c1.436,0,2.595,1.158,2.595,2.587C71.389,170.81,70.229,171.97,68.794,171.97z M83.855,181.981c-1.436,0-2.594-1.16-2.594-2.59
			c0-1.429,1.158-2.594,2.594-2.594c1.429,0,2.588,1.165,2.588,2.594C86.443,180.821,85.284,181.981,83.855,181.981z
			 M104.747,182.52c-1.429,0-2.589-1.158-2.589-2.587c0-1.43,1.16-2.594,2.589-2.594c1.429,0,2.589,1.165,2.589,2.594
			C107.336,181.362,106.176,182.52,104.747,182.52z M114.626,161.197H74.908c-1.742,0-3.154-1.411-3.154-3.154v-7.152v-7.151
			c0-1.743,1.412-3.154,3.154-3.154h39.718c1.741,0,3.152,1.411,3.152,3.154v7.693v6.61
			C117.778,159.786,116.367,161.197,114.626,161.197z M119.809,172.509c-1.436,0-2.595-1.158-2.595-2.587
			c0-1.43,1.159-2.589,2.595-2.589c1.429,0,2.588,1.16,2.588,2.589C122.396,171.351,121.237,172.509,119.809,172.509z
			 M124.15,154.02c-1.436,0-2.596-1.158-2.596-2.587c0-1.43,1.16-2.594,2.596-2.594c1.429,0,2.588,1.165,2.588,2.594
			c0,0.358-0.072,0.696-0.205,1.007C126.143,153.364,125.225,154.02,124.15,154.02z M132.726,138.682
			c-1.43,0-2.589-1.158-2.589-2.587c0-1.43,1.159-2.594,2.589-2.594c1.429,0,2.587,1.164,2.587,2.594
			C135.312,137.524,134.154,138.682,132.726,138.682z M145.967,125.67c-1.43,0-2.588-1.16-2.588-2.589s1.158-2.587,2.588-2.587
			c1.43,0,2.588,1.158,2.588,2.587S147.396,125.67,145.967,125.67z M153.983,96.184c-1.489,2.048-6.413,0.738-8.827,1.875
			c-0.156,0.078-0.307,0.167-0.445,0.262c-2.161,1.574-2.287,7.31-4.888,8.157c-2.51,0.815-5.975-3.731-8.755-3.731
			c-2.781,0-6.246,4.546-8.756,3.731c-2.191-0.715-2.625-4.907-4.006-7.147c-0.258-0.413-0.547-0.763-0.883-1.009
			c-2.186-1.591-7.68,0.048-9.271-2.137c-1.574-2.163,1.675-6.875,0.828-9.477c-0.816-2.505-6.238-4.396-6.238-7.177
			c0-2.779,5.422-4.665,6.238-7.175c0.847-2.601-2.402-7.309-0.828-9.469c1.592-2.188,7.086-0.548,9.271-2.14
			c2.162-1.573,2.288-7.314,4.889-8.154c2.51-0.817,5.975,3.722,8.756,3.722c2.779,0,6.245-4.54,8.755-3.722
			c2.601,0.84,2.727,6.581,4.888,8.154c0.205,0.151,0.439,0.271,0.697,0.372c2.486,0.943,7.135-0.214,8.575,1.768
			c1.573,2.16-1.675,6.869-0.829,9.469c0.811,2.51,6.234,4.396,6.234,7.175c0,2.781-5.424,4.672-6.234,7.177
			C152.309,89.309,155.557,94.021,153.983,96.184z M160.06,117.233c-1.436,0-2.594-1.16-2.594-2.589
			c0-1.429,1.158-2.587,2.594-2.587c1.43,0,2.588,1.158,2.588,2.587C162.648,116.073,161.49,117.233,160.06,117.233z
			 M162.913,70.055c-1.429,0-2.588-1.158-2.588-2.587c0-1.429,1.159-2.587,2.588-2.587c1.436,0,2.595,1.158,2.595,2.587
			C165.508,68.897,164.349,70.055,162.913,70.055z"/>
		<path style="fill:#F21073;" d="M162.913,64.88c-1.429,0-2.588,1.158-2.588,2.587c0,1.43,1.159,2.587,2.588,2.587
			c1.436,0,2.595-1.158,2.595-2.587C165.508,66.038,164.349,64.88,162.913,64.88z"/>
		<path style="fill:#F8840E;" d="M160.06,112.057c-1.436,0-2.594,1.158-2.594,2.587c0,1.43,1.158,2.589,2.594,2.589
			c1.43,0,2.588-1.16,2.588-2.589C162.648,113.214,161.49,112.057,160.06,112.057z"/>
		<path style="fill:#F8840E;" d="M150.909,55.084c1.429,0,2.589-1.158,2.589-2.587c0-1.437-1.16-2.594-2.589-2.594
			c-1.436,0-2.595,1.158-2.595,2.594C148.314,53.926,149.474,55.084,150.909,55.084z"/>
		<circle style="fill:#F21073;" cx="145.967" cy="123.082" r="2.588"/>
		<path style="fill:#F8840E;" d="M132.726,133.501c-1.43,0-2.589,1.164-2.589,2.594c0,1.429,1.159,2.587,2.589,2.587
			c1.429,0,2.587-1.158,2.587-2.587C135.312,134.665,134.154,133.501,132.726,133.501z"/>
		<circle style="fill:#F21073;" cx="131.068" cy="46.472" r="2.588"/>
		<path style="fill:#F21073;" d="M124.15,148.838c-1.436,0-2.596,1.165-2.596,2.594c0,1.429,1.16,2.587,2.596,2.587
			c1.074,0,1.992-0.655,2.383-1.58c0.133-0.311,0.205-0.648,0.205-1.007C126.738,150.003,125.579,148.838,124.15,148.838z"/>
		<path style="fill:#F8840E;" d="M119.809,167.333c-1.436,0-2.595,1.16-2.595,2.589c0,1.429,1.159,2.587,2.595,2.587
			c1.429,0,2.588-1.158,2.588-2.587C122.396,168.492,121.237,167.333,119.809,167.333z"/>
		<path style="fill:#F21073;" d="M117.778,151.433v-7.693c0-1.743-1.411-3.154-3.152-3.154H74.908c-1.742,0-3.154,1.411-3.154,3.154
			v7.151v7.152c0,1.743,1.412,3.154,3.154,3.154h39.718c1.741,0,3.152-1.411,3.152-3.154V151.433z"/>
		<path style="fill:#F8840E;" d="M107.666,36.006c0.324,0.662,0.853,1.212,1.561,1.562c1.898,0.95,4.372,0.077,5.52-1.935
			c1.152-2.005,0.54-4.4-1.363-5.343l-10.895-5.405c-0.041-0.025-0.102-0.025-0.149,0.004c-0.084,0.048-0.12,0.144-0.077,0.224
			L107.666,36.006z"/>
		<path style="fill:#F8840E;" d="M108.639,52.49c0,1.436,1.159,2.594,2.588,2.594c1.43,0,2.595-1.158,2.595-2.594
			c0-1.43-1.165-2.587-2.595-2.587C109.798,49.903,108.639,51.061,108.639,52.49z"/>
		<path style="fill:#630F35;" d="M81.741,122.48c-0.636,1.101-0.636,2.457,0,3.555c0.637,1.105,1.808,1.784,3.081,1.784h19.883
			c0.006,0,0.006,0,0.006,0c1.964,0,3.562-1.599,3.562-3.56c0-0.715-0.21-1.377-0.571-1.934l-9.854-17.066
			c-0.637-1.101-1.814-1.779-3.081-1.779c-1.273,0-2.45,0.678-3.087,1.779L81.741,122.48z"/>
		<path style="fill:#F21073;" d="M104.747,177.338c-1.429,0-2.589,1.165-2.589,2.594c0,1.429,1.16,2.587,2.589,2.587
			c1.429,0,2.589-1.158,2.589-2.587C107.336,178.503,106.176,177.338,104.747,177.338z"/>
		<path style="fill:#F21073;" d="M96.364,45.459c2.9-0.792,4.546-3.556,3.663-6.175l-5.045-14.989
			c-0.023-0.059-0.078-0.114-0.15-0.137c-0.119-0.032-0.246,0.03-0.281,0.137l-5.045,14.989c-0.307,0.907-0.33,1.897,0,2.871
			C90.389,44.774,93.457,46.251,96.364,45.459z"/>
		<circle style="fill:#F21073;" cx="94.767" cy="62.285" r="2.588"/>
		<path style="fill:#F8840E;" d="M76.523,37.369c2.005,1.153,4.4,0.541,5.344-1.363l5.404-10.892
			c0.024-0.044,0.024-0.103-0.006-0.151c-0.047-0.084-0.145-0.121-0.222-0.078L76.15,30.29c-0.66,0.324-1.213,0.852-1.562,1.562
			C73.646,33.748,74.512,36.223,76.523,37.369z"/>
		<path style="fill:#F21073;" d="M83.855,176.797c-1.436,0-2.594,1.165-2.594,2.594c0,1.43,1.158,2.59,2.594,2.59
			c1.429,0,2.588-1.16,2.588-2.59C86.443,177.962,85.284,176.797,83.855,176.797z"/>
		<path style="fill:#F8840E;" d="M78.685,49.903c-1.43,0-2.589,1.158-2.589,2.594c0,1.429,1.159,2.587,2.589,2.587
			c1.428,0,2.588-1.158,2.588-2.587C81.273,51.061,80.113,49.903,78.685,49.903z"/>
		<path style="fill:#F8840E;" d="M68.794,166.794c-1.429,0-2.589,1.158-2.589,2.587c0,1.43,1.16,2.59,2.589,2.59
			c1.436,0,2.595-1.16,2.595-2.59C71.389,167.951,70.229,166.794,68.794,166.794z"/>
		<path style="fill:#F21073;" d="M67.041,150.891c0-1.429-1.16-2.594-2.588-2.594c-1.43,0-2.589,1.165-2.589,2.594
			c0,0.535,0.162,1.032,0.438,1.448c0.469,0.69,1.255,1.14,2.15,1.14C65.881,153.479,67.041,152.321,67.041,150.891z"/>
		<path style="fill:#F21073;" d="M58.844,49.067c1.436,0,2.594-1.165,2.594-2.594c0-1.43-1.158-2.589-2.594-2.589
			c-1.43,0-2.588,1.16-2.588,2.589C56.256,47.902,57.414,49.067,58.844,49.067z"/>
		<path style="fill:#F8840E;" d="M58.465,135.553c0-1.429-1.158-2.594-2.588-2.594c-1.436,0-2.594,1.164-2.594,2.594
			c0,1.43,1.158,2.589,2.594,2.589C57.307,138.143,58.465,136.983,58.465,135.553z"/>
		<path style="fill:#F21073;" d="M42.635,119.953c-1.428,0-2.594,1.16-2.594,2.587c0,1.429,1.166,2.589,2.594,2.589
			c1.43,0,2.589-1.16,2.589-2.589C45.224,121.113,44.064,119.953,42.635,119.953z"/>
		<path style="fill:#F8840E;" d="M39.009,55.084c1.429,0,2.587-1.158,2.587-2.587c0-1.43-1.158-2.594-2.587-2.594
			c-1.43,0-2.595,1.165-2.595,2.594C36.414,53.926,37.579,55.084,39.009,55.084z"/>
		<path style="fill:#F8840E;" d="M28.542,111.508c-1.43,0-2.589,1.167-2.589,2.597c0,1.427,1.159,2.587,2.589,2.587
			c1.429,0,2.588-1.16,2.588-2.587C31.13,112.675,29.971,111.508,28.542,111.508z"/>
		<path style="fill:#F21073;" d="M29.586,67.467c0-1.429-1.158-2.587-2.588-2.587c-1.43,0-2.594,1.158-2.594,2.587
			c0,1.43,1.164,2.594,2.594,2.594C28.428,70.062,29.586,68.897,29.586,67.467z"/>
	</g>
	<g>
		<path style="fill:#D8EBD7;" d="M159.389,79.531c0-2.779-5.424-4.665-6.234-7.175c-0.846-2.601,2.402-7.309,0.829-9.469
			c-1.44-1.982-6.089-0.824-8.575-1.768c-0.258-0.101-0.492-0.221-0.697-0.372c-0.994-0.724-1.559-2.331-2.131-3.937
			c-0.112,1.311-0.273,2.63-0.494,3.952c-0.508,1.648-1.063,3.264-1.662,4.851c1.129-0.286,2.271-0.596,3.201-0.596
			c0.6,0,1.117,0.132,1.471,0.486c1.592,1.592-1.291,6.282-0.414,8.39c0.847,2.042,6.228,3.297,6.228,5.638
			c0,2.35-5.381,3.604-6.228,5.64c-0.877,2.115,2.006,6.798,0.414,8.39c-0.36,0.361-0.871,0.491-1.477,0.491
			c-1.766,0-4.307-1.121-6.035-1.062c-0.324,0.007-0.625,0.055-0.877,0.162c-2.043,0.84-3.297,6.22-5.639,6.22
			c-2.342,0-3.604-5.38-5.639-6.22c-0.047-0.02-0.102-0.027-0.149-0.043c-1.96,2.866-3.959,5.696-5.948,8.523
			c0.752,2.073,1.422,4.338,2.981,4.846c2.51,0.815,5.975-3.731,8.756-3.731c2.779,0,6.245,4.546,8.755,3.731
			c2.601-0.847,2.727-6.583,4.888-8.157c0.139-0.096,0.289-0.185,0.445-0.262c2.414-1.137,7.338,0.173,8.827-1.875
			c1.573-2.163-1.675-6.875-0.829-9.477C153.965,84.203,159.389,82.312,159.389,79.531z"/>
		<path style="fill:#DE0F6A;" d="M150.909,79.531c0-2.34-5.381-3.596-6.228-5.638c-0.877-2.108,2.006-6.798,0.414-8.39
			c-0.353-0.354-0.871-0.486-1.471-0.486c-0.93,0-2.072,0.31-3.201,0.596c-0.493,1.31-1.021,2.596-1.57,3.868
			c-0.027,1.889-0.669,4.413-0.003,5.564c0.985,1.694,6.311,2.384,6.311,4.485c0,2.103-5.326,2.8-6.311,4.494
			c-1.015,1.753,1.015,6.7-0.733,7.716c-0.18,0.103-0.371,0.15-0.582,0.15c-1.783,0-4.588-3.37-6.467-3.37
			c-1.23,0-2.855,1.44-4.332,2.438c-0.482,0.719-0.968,1.436-1.456,2.15c0.048,0.016,0.103,0.023,0.149,0.043
			c2.035,0.84,3.297,6.22,5.639,6.22c2.342,0,3.596-5.38,5.639-6.22c0.252-0.107,0.553-0.155,0.877-0.162
			c1.729-0.06,4.27,1.062,6.035,1.062c0.605,0,1.116-0.13,1.477-0.491c1.592-1.592-1.291-6.275-0.414-8.39
			C145.528,83.134,150.909,81.88,150.909,79.531z"/>
		<path style="fill:#E47A0D;" d="M138.851,75.046c-0.666-1.151-0.024-3.676,0.003-5.564c-0.689,1.6-1.42,3.172-2.187,4.719
			c1.324,1.388,2.142,3.262,2.142,5.33c0,4.277-3.465,7.741-7.74,7.741c-0.61,0-1.201-0.078-1.771-0.212
			c-0.84,1.31-1.695,2.608-2.561,3.898c1.477-0.998,3.102-2.438,4.332-2.438c1.879,0,4.684,3.37,6.467,3.37
			c0.211,0,0.402-0.048,0.582-0.15c1.748-1.016-0.281-5.962,0.733-7.716c0.985-1.694,6.311-2.391,6.311-4.494
			C145.162,77.43,139.836,76.74,138.851,75.046z"/>
		<path style="fill:#521230;" d="M131.068,87.272c4.275,0,7.74-3.464,7.74-7.741c0-2.068-0.817-3.942-2.142-5.33
			c-2.21,4.459-4.714,8.717-7.37,12.86C129.867,87.194,130.458,87.272,131.068,87.272z"/>
		<path style="fill:#63C072;" d="M96.136,0c-1.285,0-2.54,0.032-3.784,0.077c22.68,5.58,42.434,20.201,48.734,43.686
			c1.56,3.899,1.893,8.407,1.494,13.048c0.572,1.605,1.137,3.212,2.131,3.937c0.205,0.151,0.439,0.271,0.697,0.372
			c2.486,0.943,7.135-0.214,8.575,1.768c1.573,2.16-1.675,6.869-0.829,9.469c0.811,2.51,6.234,4.396,6.234,7.175
			c0,2.781-5.424,4.672-6.234,7.177c-0.846,2.601,2.402,7.314,0.829,9.477c-1.489,2.048-6.413,0.738-8.827,1.875
			c-0.156,0.078-0.307,0.167-0.445,0.262c-2.161,1.574-2.287,7.31-4.888,8.157c-2.51,0.815-5.975-3.731-8.755-3.731
			c-2.781,0-6.246,4.546-8.756,3.731c-1.559-0.508-2.229-2.773-2.981-4.846c-4.418,6.274-8.781,12.532-12.545,19.11l0.914,1.584
			c0.361,0.557,0.571,1.219,0.571,1.934c0,1.961-1.598,3.56-3.562,3.56c0,0,0,0-0.006,0h-1.643c-1.815,4.132-3.24,8.402-4.34,12.767
			h15.903c1.741,0,3.152,1.411,3.152,3.154v7.693v6.61c0,1.743-1.411,3.154-3.152,3.154H95.828
			c-0.402,9.341,0.266,18.82,1.585,28.092c17.624-2.118,30.208-17.566,30.208-17.566c0-7.122,1.832-13.536,4.726-19.217
			c10.827-21.253,36.487-32.295,36.487-32.295S189.444,0,96.136,0z M150.909,55.084c-1.436,0-2.595-1.158-2.595-2.587
			c0-1.437,1.159-2.594,2.595-2.594c1.429,0,2.589,1.158,2.589,2.594C153.498,53.926,152.338,55.084,150.909,55.084z
			 M104.747,182.52c-1.429,0-2.589-1.158-2.589-2.587c0-1.43,1.16-2.594,2.589-2.594c1.429,0,2.589,1.165,2.589,2.594
			C107.336,181.362,106.176,182.52,104.747,182.52z M119.809,172.509c-1.436,0-2.595-1.158-2.595-2.587
			c0-1.43,1.159-2.589,2.595-2.589c1.429,0,2.588,1.16,2.588,2.589C122.396,171.351,121.237,172.509,119.809,172.509z
			 M126.533,152.439c-0.391,0.925-1.309,1.58-2.383,1.58c-1.436,0-2.596-1.158-2.596-2.587c0-1.43,1.16-2.594,2.596-2.594
			c1.429,0,2.588,1.165,2.588,2.594C126.738,151.791,126.666,152.129,126.533,152.439z M132.726,138.682
			c-1.43,0-2.589-1.158-2.589-2.587c0-1.43,1.159-2.594,2.589-2.594c1.429,0,2.587,1.164,2.587,2.594
			C135.312,137.524,134.154,138.682,132.726,138.682z M145.967,125.67c-1.43,0-2.588-1.16-2.588-2.589s1.158-2.587,2.588-2.587
			c1.43,0,2.588,1.158,2.588,2.587S147.396,125.67,145.967,125.67z M160.06,117.233c-1.436,0-2.594-1.16-2.594-2.589
			c0-1.429,1.158-2.587,2.594-2.587c1.43,0,2.588,1.158,2.588,2.587C162.648,116.073,161.49,117.233,160.06,117.233z
			 M162.913,70.055c-1.429,0-2.588-1.158-2.588-2.587c0-1.429,1.159-2.587,2.588-2.587c1.436,0,2.595,1.158,2.595,2.587
			C165.508,68.897,164.349,70.055,162.913,70.055z"/>
		<path style="fill:#DE0F6A;" d="M162.913,64.88c-1.429,0-2.588,1.158-2.588,2.587c0,1.43,1.159,2.587,2.588,2.587
			c1.436,0,2.595-1.158,2.595-2.587C165.508,66.038,164.349,64.88,162.913,64.88z"/>
		<path style="fill:#E47A0D;" d="M160.06,112.057c-1.436,0-2.594,1.158-2.594,2.587c0,1.43,1.158,2.589,2.594,2.589
			c1.43,0,2.588-1.16,2.588-2.589C162.648,113.214,161.49,112.057,160.06,112.057z"/>
		<path style="fill:#E47A0D;" d="M150.909,55.084c1.429,0,2.589-1.158,2.589-2.587c0-1.437-1.16-2.594-2.589-2.594
			c-1.436,0-2.595,1.158-2.595,2.594C148.314,53.926,149.474,55.084,150.909,55.084z"/>
		<circle style="fill:#DE0F6A;" cx="145.967" cy="123.082" r="2.588"/>
		<path style="fill:#E47A0D;" d="M132.726,133.501c-1.43,0-2.589,1.164-2.589,2.594c0,1.429,1.159,2.587,2.589,2.587
			c1.429,0,2.587-1.158,2.587-2.587C135.312,134.665,134.154,133.501,132.726,133.501z"/>
		<path style="fill:#DE0F6A;" d="M124.15,148.838c-1.436,0-2.596,1.165-2.596,2.594c0,1.429,1.16,2.587,2.596,2.587
			c1.074,0,1.992-0.655,2.383-1.58c0.133-0.311,0.205-0.648,0.205-1.007C126.738,150.003,125.579,148.838,124.15,148.838z"/>
		<path style="fill:#E47A0D;" d="M119.809,167.333c-1.436,0-2.595,1.16-2.595,2.589c0,1.429,1.159,2.587,2.595,2.587
			c1.429,0,2.588-1.158,2.588-2.587C122.396,168.492,121.237,167.333,119.809,167.333z"/>
		<path style="fill:#DE0F6A;" d="M114.626,161.197c1.741,0,3.152-1.411,3.152-3.154v-6.61v-7.693c0-1.743-1.411-3.154-3.152-3.154
			H98.723c-1.687,6.694-2.592,13.613-2.895,20.611H114.626z"/>
		<path style="fill:#521230;" d="M103.062,127.819h1.643c0.006,0,0.006,0,0.006,0c1.964,0,3.562-1.599,3.562-3.56
			c0-0.715-0.21-1.377-0.571-1.934l-0.914-1.584c-1.313,2.297-2.559,4.63-3.701,7.021C103.078,127.781,103.07,127.8,103.062,127.819
			z"/>
		<path style="fill:#DE0F6A;" d="M104.747,177.338c-1.429,0-2.589,1.165-2.589,2.594c0,1.429,1.16,2.587,2.589,2.587
			c1.429,0,2.589-1.158,2.589-2.587C107.336,178.503,106.176,177.338,104.747,177.338z"/>
	</g>
</g>
<g>
</g>
<g>
</g>
<g>
</g>
<g>
</g>
<g>
</g>
<g>
</g>
<g>
</g>
<g>
</g>
<g>
</g>
<g>
</g>
<g>
</g>
<g>
</g>
<g>
</g>
<g>
</g>
<g>
</g>
</svg>
