<?xml version="1.0" encoding="iso-8859-1"?>
<!-- Generator: Adobe Illustrator 19.0.0, SVG Export Plug-In . SVG Version: 6.00 Build 0)  -->
<svg version="1.1" id="Capa_1" xmlns="http://www.w3.org/2000/svg" xmlns:xlink="http://www.w3.org/1999/xlink" x="0px" y="0px"
	 viewBox="0 0 512 512" style="enable-background:new 0 0 512 512;" xml:space="preserve">
<path style="fill:#B9D8F4;" d="M286.917,512h-61.836c-48.162,0-87.567-39.405-87.567-87.567v-124.94
	c0-48.162,39.405-87.567,87.567-87.567h61.836c48.162,0,87.567,39.405,87.567,87.567v124.941
	C374.483,472.595,335.078,512,286.917,512z"/>
<path style="fill:#96C8EF;" d="M225.036,436.128V311.187c0-48.154,50.77-90.954,98.925-90.97
	c-11.268-5.307-23.822-8.292-37.045-8.292h-61.836c-48.162,0-87.567,39.405-87.567,87.567v124.941
	c0,48.162,39.405,87.567,87.567,87.567h43.99C242.818,496.835,225.036,468.467,225.036,436.128z"/>
<path style="fill:#00DDC2;" d="M225.082,512h61.836c1.26,0,2.511-0.042,3.758-0.096c-6.273-12.82-19.441-21.651-34.675-21.651
	c-15.235,0-28.403,8.831-34.675,21.651C222.571,511.958,223.822,512,225.082,512z"/>
<path style="fill:#00CCB3;" d="M245.172,491.799c-10.484,3.061-19.123,10.449-23.847,20.105c1.248,0.054,2.498,0.096,3.758,0.096
	h43.989l0,0C259.951,506.733,251.857,499.867,245.172,491.799z"/>
<circle style="fill:#FFEB99;" cx="255.993" cy="464.702" r="7.726"/>
<path style="fill:#FF3F62;" d="M208.357,461.134c5.39,4.575,17.091,22.026,12.516,27.416c-4.575,5.39-23.695-3.321-29.085-7.896
	c-5.39-4.575-6.05-12.654-1.475-18.044C194.888,457.219,202.967,456.559,208.357,461.134z"/>
<path style="fill:#FF728B;" d="M303.643,461.134c-5.39,4.575-17.091,22.026-12.516,27.416c4.575,5.39,23.695-3.321,29.085-7.896
	c5.39-4.575,6.05-12.654,1.475-18.044C317.11,457.219,309.033,456.559,303.643,461.134z"/>
<path style="fill:#D1E7F8;" d="M432.379,268.269c-3.629-7.239-3.957-15.668-1.333-23.329c6.471-18.887,9.973-39.15,9.942-60.237
	C440.842,83.545,358.074,0,255.999,0S71.157,83.545,71.01,184.703c-0.031,21.087,3.472,41.35,9.942,60.237
	c2.625,7.661,2.297,16.091-1.333,23.329c-5.504,10.978-8.609,23.364-8.609,36.481c0,70.99,57.879,80.379,82.314,81.08
	c6.52,0.188,12.245,4.394,14.459,10.53l2.516,6.977c3.06,8.485,11.112,14.141,20.131,14.141h131.142
	c9.019,0,17.071-5.656,20.131-14.141l2.516-6.977c2.213-6.136,7.938-10.342,14.459-10.53c24.435-0.701,82.314-10.091,82.314-81.08
	C440.99,291.632,437.885,279.246,432.379,268.269z"/>
<path style="fill:#B9D8F4;" d="M158.002,274.181C80.532,100.688,171.751,20.41,171.758,20.404
	c-59.636,30.742-100.645,92.973-100.748,164.3c-0.031,21.087,3.472,41.35,9.942,60.237c2.625,7.661,2.297,16.091-1.333,23.329
	c-5.504,10.978-8.609,23.364-8.609,36.481c0,70.99,57.879,80.379,82.314,81.08c6.52,0.188,12.245,4.393,14.458,10.529
	c0.809,2.242,1.672,4.637,2.517,6.979c3.06,8.485,11.111,14.138,20.131,14.138l34.24,0.139
	c-7.562-10.932-9.067-22.635-12.258-32.362c-4.517-13.769-12.457-26.086-22.878-36.155c-20.093-19.416-25.183-43.031-26.463-55.725
	C162.4,286.747,160.716,280.262,158.002,274.181z"/>
<g>
	<path style="fill:#57565C;" d="M206.443,439.158c-4.267,0-7.726-3.459-7.726-7.727V403.52c0-4.267,3.459-7.726,7.726-7.726
		s7.726,3.459,7.726,7.726v27.911C214.17,435.698,210.711,439.158,206.443,439.158z"/>
	<path style="fill:#57565C;" d="M239.481,439.158c-4.267,0-7.726-3.459-7.726-7.727V403.52c0-4.267,3.459-7.726,7.726-7.726
		s7.726,3.459,7.726,7.726v27.911C247.207,435.698,243.748,439.158,239.481,439.158z"/>
	<path style="fill:#57565C;" d="M272.518,439.158c-4.267,0-7.726-3.459-7.726-7.727V403.52c0-4.267,3.459-7.726,7.726-7.726
		c4.267,0,7.727,3.459,7.727,7.726v27.911C280.245,435.698,276.785,439.158,272.518,439.158z"/>
	<path style="fill:#57565C;" d="M305.556,439.158c-4.267,0-7.726-3.459-7.726-7.727V403.52c0-4.267,3.459-7.726,7.726-7.726
		c4.267,0,7.726,3.459,7.726,7.726v27.911C313.282,435.698,309.823,439.158,305.556,439.158z"/>
</g>
<g>
	<path style="fill:#3E3D42;" d="M297.829,431.431c0,4.267,3.459,7.727,7.726,7.727c4.267,0,7.726-3.459,7.726-7.727v-13.816h-15.453
		V431.431z"/>
	<path style="fill:#3E3D42;" d="M264.792,431.431c0,4.267,3.459,7.727,7.726,7.727c4.267,0,7.727-3.459,7.727-7.727v-13.816h-15.453
		V431.431z"/>
	<path style="fill:#3E3D42;" d="M231.754,431.431c0,4.267,3.459,7.727,7.726,7.727s7.726-3.459,7.726-7.727v-13.816h-15.453V431.431
		z"/>
	<path style="fill:#3E3D42;" d="M198.717,431.431c0,4.267,3.459,7.727,7.726,7.727s7.726-3.459,7.726-7.727v-13.816h-15.453V431.431
		z"/>
</g>
<path style="fill:#57565C;" d="M282.933,353.208c0,14.875-12.058,17.955-26.933,17.955c-14.875,0-26.933-3.08-26.933-17.955
	c0-14.875,12.058-50.275,26.933-50.275C270.874,302.934,282.933,338.334,282.933,353.208z"/>
<path style="fill:#3E3D42;" d="M250.811,355.082c0-11.322,6.99-34.522,16.887-44.964c-3.538-4.371-7.506-7.185-11.698-7.185
	c-14.875,0-26.933,35.401-26.933,50.275c0,14.874,12.058,17.955,26.933,17.955c1.983,0,3.915-0.057,5.776-0.188
	C255.126,368.654,250.811,363.978,250.811,355.082z"/>
<path style="fill:#FF728B;" d="M232.607,265.747c3.087-2.826,5.036-6.876,5.036-11.391c0-8.534-6.919-15.453-15.453-15.453
	c-2.062,0-4.027,0.412-5.827,1.146c0.173-0.925,0.274-1.877,0.274-2.853c0-8.534-6.919-15.453-15.453-15.453
	c-4.708,0-8.916,2.112-11.75,5.432c-2.316-5.613-7.837-9.564-14.285-9.564c-6.178,0-11.494,3.635-13.967,8.874
	c-2.819-3.764-7.301-6.301-12.364-6.212c-16.37,0.289-15.424,16.091-15.405,16.408c-1.657-0.607-3.438-0.955-5.306-0.955
	c-8.534,0-15.453,6.919-15.453,15.453c0,3.546,1.207,6.803,3.216,9.411c-7.06,1.427-12.377,7.664-12.377,15.145
	c0,6.274,3.745,11.662,9.115,14.083c-2.881,2.807-4.628,6.724-4.677,11.064c-0.19,16.397,17.16,15.419,17.16,15.453
	c0,8.534,6.919,15.453,15.453,15.453c3.123,0,6.024-0.933,8.454-2.526c2.717,4.432,7.59,7.399,13.17,7.399
	c7.029,0,12.952-4.698,14.826-11.121c2.725,2.408,6.303,4.131,10.216,3.88c16.701-1.069,15.431-15.831,15.424-16.021
	c1.308,0.36,2.68,0.568,4.102,0.568c8.534,0,15.453-6.919,15.453-15.453c0-2.123-0.43-4.145-1.204-5.986
	c0.399,0.031,16.131,0.03,16.657-15.392C237.796,272.624,235.695,268.573,232.607,265.747z"/>
<path style="fill:#FF3F62;" d="M174.759,330.144c-8.127-14.144-10.81-28.041-11.69-36.772c-0.669-6.625-2.353-13.111-5.068-19.192
	c-8.027-17.977-14.238-34.95-18.933-50.941c-6.173,4.665-5.669,13.209-5.656,13.441c-1.657-0.607-3.438-0.955-5.306-0.955
	c-8.534,0-15.453,6.919-15.453,15.453c0,3.546,1.207,6.803,3.216,9.411c-7.06,1.427-12.377,7.664-12.377,15.145
	c0,6.274,3.745,11.662,9.115,14.083c-2.881,2.807-4.628,6.724-4.677,11.064c-0.19,16.397,17.16,15.419,17.16,15.453
	c0,8.534,6.919,15.453,15.453,15.453c3.123,0,6.024-0.933,8.454-2.526c2.717,4.432,7.59,7.399,13.17,7.399
	C167.371,336.662,171.962,334.086,174.759,330.144z"/>
<path style="fill:#57565C;" d="M176.989,318.703c-22.651,8.02-47.515-3.84-55.535-26.491c-8.02-22.651,3.84-47.515,26.491-55.535
	c22.651-8.02,67.333-3.177,75.353,19.473C231.318,278.801,199.64,310.683,176.989,318.703z"/>
<path style="fill:#3E3D42;" d="M146.575,294.238c-8.02-22.651,3.84-47.515,26.491-55.535c5.458-1.933,12.199-3.11,19.393-3.479
	c-15.338-3.371-32.846-2.664-44.514,1.467c-22.651,8.02-34.511,32.884-26.491,55.535c7.401,20.901,29.142,32.6,50.253,27.984
	C160.374,315.76,150.957,306.616,146.575,294.238z"/>
<path style="fill:#FF728B;" d="M274.359,277.138c0.525,15.422,16.259,15.423,16.657,15.392c-0.775,1.841-1.204,3.863-1.204,5.986
	c0,8.534,6.919,15.453,15.453,15.453c1.423,0,2.794-0.208,4.102-0.568c-0.007,0.19-1.276,14.951,15.424,16.021
	c3.914,0.25,7.492-1.473,10.216-3.88c1.874,6.424,7.797,11.121,14.826,11.121c5.58,0,10.453-2.967,13.17-7.399
	c2.43,1.593,5.331,2.526,8.454,2.526c8.534,0,15.453-6.919,15.453-15.453c0-0.034,17.35,0.944,17.16-15.453
	c-0.05-4.34-1.796-8.258-4.677-11.064c5.37-2.421,9.115-7.81,9.115-14.083c0-7.48-5.317-13.718-12.377-15.145
	c2.009-2.607,3.216-5.865,3.216-9.411c0-8.534-6.919-15.453-15.453-15.453c-1.867,0-3.648,0.348-5.306,0.955
	c0.02-0.317,0.965-16.118-15.405-16.408c-5.063-0.09-9.546,2.447-12.364,6.212c-2.472-5.24-7.788-8.874-13.967-8.874
	c-6.448,0-11.969,3.952-14.285,9.564c-2.834-3.32-7.042-5.432-11.75-5.432c-8.534,0-15.453,6.919-15.453,15.453
	c0,0.976,0.101,1.926,0.274,2.853c-1.799-0.734-3.764-1.146-5.827-1.146c-8.534,0-15.453,6.919-15.453,15.453
	c0,4.515,1.948,8.565,5.036,11.391C276.307,268.573,274.206,272.624,274.359,277.138z"/>
<path style="fill:#57565C;" d="M335.013,318.703c22.651,8.02,47.515-3.84,55.535-26.491c8.02-22.651-3.84-47.515-26.49-55.535
	c-22.651-8.02-67.333-3.177-75.353,19.473C280.685,278.8,312.363,310.683,335.013,318.703z"/>
<path style="fill:#3E3D42;" d="M313.825,258.159c5.163-14.582,25.521-21.773,45.413-22.914c-23.64-5.862-63.048-0.237-70.534,20.902
	c-8.02,22.651,23.659,54.531,46.308,62.553c7.926,2.806,16.123,3.171,23.774,1.498C336.253,311.43,305.962,280.366,313.825,258.159z
	"/>
<path style="fill:#FFEB99;" d="M281.121,160.159h-17.396v-20.911c0-4.267-3.459-7.726-7.726-7.726s-7.726,3.459-7.726,7.726v20.911
	h-17.396c-4.267,0-7.726,3.459-7.726,7.726s3.459,7.726,7.726,7.726h17.396v45.253c0,4.267,3.459,7.726,7.726,7.726
	c4.267,0,7.726-3.459,7.726-7.726v-45.253h17.396c4.267,0,7.726-3.459,7.726-7.726S285.389,160.159,281.121,160.159z"/>
<path style="fill:#00DDC2;" d="M274.375,58.823c0,10.148-8.227,43.195-18.376,43.195c-10.148,0-18.376-33.047-18.376-43.195
	s8.227-18.376,18.376-18.376C266.148,40.448,274.375,48.674,274.375,58.823z"/>
<path style="fill:#00CCB3;" d="M255.975,59.965c0-7.207,4.16-13.429,10.2-16.439c-2.914-1.942-6.411-3.078-10.176-3.078
	c-10.148,0-18.376,8.227-18.376,18.376s8.227,43.195,18.376,43.195c3.22,0,6.245-3.333,8.877-8.199
	C259.543,83.252,255.975,66.647,255.975,59.965z"/>
<path style="fill:#00DDC2;" d="M184.377,117.686c6.359,4.319,23.567,23.537,19.247,29.896c-4.319,6.359-28.527-2.548-34.887-6.866
	c-6.359-4.319-8.014-12.975-3.695-19.335C169.36,115.021,178.017,113.367,184.377,117.686z"/>
<path style="fill:#00CCB3;" d="M176.275,131.182c-4.85-3.294-6.953-9.109-5.767-14.506c-2.135,1.028-4.039,2.603-5.466,4.704
	c-4.319,6.359-2.664,15.016,3.695,19.335c6.359,4.319,30.568,13.226,34.887,6.866c1.162-1.711,0.756-4.358-0.569-7.392
	C194.054,139.524,180.749,134.22,176.275,131.182z"/>
<path style="fill:#00DDC2;" d="M327.621,117.686c-6.359,4.319-23.567,23.537-19.247,29.896c4.32,6.359,28.527-2.548,34.887-6.866
	c6.359-4.319,8.014-12.975,3.695-19.335C342.638,115.021,333.981,113.367,327.621,117.686z"/>
<g>
	<path style="fill:#FF9478;" d="M217.678,119.645l-16.6-24.24c-2.411-3.52-1.511-8.329,2.009-10.741
		c3.521-2.411,8.33-1.511,10.741,2.009l16.6,24.24c2.411,3.52,1.511,8.329-2.009,10.741
		C227.085,122.569,221.76,125.3,217.678,119.645z"/>
	<path style="fill:#FF9478;" d="M283.58,121.654c-3.52-2.411-4.421-7.22-2.009-10.741l16.6-24.24
		c2.411-3.52,7.22-4.421,10.741-2.009c3.52,2.411,4.421,7.22,2.009,10.741l-16.6,24.24
		C290.707,124.636,284.915,122.569,283.58,121.654z"/>
	<path style="fill:#FF9478;" d="M197.889,184.68h-13.756c-4.267,0-7.726-3.459-7.726-7.726s3.459-7.726,7.726-7.726h13.756
		c4.267,0,7.726,3.459,7.726,7.726S202.157,184.68,197.889,184.68z"/>
	<path style="fill:#FF9478;" d="M327.865,184.68h-13.756c-4.267,0-7.726-3.459-7.726-7.726s3.459-7.726,7.726-7.726h13.756
		c4.267,0,7.726,3.459,7.726,7.726S332.133,184.68,327.865,184.68z"/>
</g>
<path style="fill:#FF728B;" d="M114.913,103.782c45.03-2.365,21.946-49.582-1.118-36.795
	c-20.025,24.075-34.089,53.257-39.861,85.227c8.389,20.249,52.207,10.004,29.231-25.368
	C132.518,172.035,168.723,100.955,114.913,103.782z"/>
<path style="fill:#FF3F62;" d="M103.165,126.847c8.033,12.368,16.577,16.013,23.651,14.862c0.104-13.178,1.326-25.247,3.306-36.222
	c-3.967-1.359-8.977-2.033-15.208-1.705c7.002-0.368,12.355-1.821,16.319-3.963c1.878-8.901,4.244-17.032,6.889-24.404
	c-4.514-8.338-14.42-13.919-24.326-8.426c-20.025,24.075-34.089,53.257-39.861,85.227
	C82.323,172.463,126.142,162.219,103.165,126.847z"/>
<path style="fill:#FFE477;" d="M111.217,103.974c-0.412-7.846-4.856-14.52-11.216-18.132c-7.912,12.382-14.393,25.755-19.204,39.882
	c2.903,1.168,6.099,1.742,9.43,1.567C102.463,126.648,111.86,116.209,111.217,103.974z"/>
<path style="fill:#FF728B;" d="M438.064,152.215c-5.772-31.97-19.836-61.153-39.861-85.227
	c-23.064-12.789-46.148,34.429-1.118,36.794c-53.809-2.827-17.604,68.253,11.748,23.065
	C385.857,162.22,429.675,172.463,438.064,152.215z"/>
<path style="fill:#FFEB99;" d="M431.201,125.723c-4.812-14.127-11.292-27.5-19.204-39.882c-6.359,3.613-10.804,10.287-11.216,18.132
	c-0.643,12.235,8.755,22.675,20.99,23.317C425.102,127.466,428.298,126.891,431.201,125.723z"/>
<path style="fill:#00CCB3;" d="M335.724,131.182c4.85-3.294,6.953-9.109,5.767-14.506c2.135,1.028,4.039,2.603,5.466,4.704
	c4.319,6.359,2.664,15.016-3.695,19.335s-30.568,13.226-34.887,6.866c-1.162-1.711-0.756-4.358,0.569-7.392
	C317.945,139.524,331.249,134.22,335.724,131.182z"/>
<g>
</g>
<g>
</g>
<g>
</g>
<g>
</g>
<g>
</g>
<g>
</g>
<g>
</g>
<g>
</g>
<g>
</g>
<g>
</g>
<g>
</g>
<g>
</g>
<g>
</g>
<g>
</g>
<g>
</g>
</svg>
